<?xml version="1.0" encoding="utf-8" ?>
<svg xmlns="http://www.w3.org/2000/svg" xmlns:xlink="http://www.w3.org/1999/xlink" width="15" height="18">
	<defs>
		<clipPath id="clip_0">
			<rect x="-903.84009" y="-823.79993" width="1382.4" height="3175.6797" clip-rule="evenodd"/>
		</clipPath>
	</defs>
	<g clip-path="url(#clip_0)">
		<path fill="rgb(176,176,176)" stroke="none" transform="matrix(0.96 0 0 0.96 0.47998 0.840027)" d="M7.31272 2.81258e-05C10.1087 2.81258e-05 12.3756 2.26669 12.3756 5.06268L12.3756 6.74967C13.6182 6.74995 14.6254 7.75713 14.6254 8.99973L14.6254 18L0 18L0 8.99973C0 7.75713 1.00747 6.74967 2.25007 6.74967L2.25007 5.06268C2.25007 2.26669 4.51701 2.81258e-05 7.31272 2.81258e-05ZM3.37538 5.06268C3.37538 2.88799 5.13831 1.12506 7.31272 1.12506C9.48741 1.12506 11.2506 2.88799 11.2506 5.06268L11.2506 6.74967L3.37538 6.74967L3.37538 5.06268ZM12.3754 16.8744C12.9967 16.8744 13.5004 16.3707 13.5004 15.7499L13.5004 8.99973C13.5004 8.37843 12.9967 7.8747 12.3754 7.8747L2.25007 7.8747C1.62877 7.8747 1.12503 8.37843 1.12503 8.99973L1.12503 15.7499C1.12503 16.3707 1.62877 16.8744 2.25007 16.8744L12.3754 16.8744ZM6.7502 10.6873C6.7502 10.3765 7.00221 10.1248 7.31272 10.1248C7.62323 10.1248 7.87523 10.3765 7.87523 10.6873L7.87523 14.0624C7.87523 14.3729 7.62323 14.6249 7.31272 14.6249C7.00221 14.6249 6.7502 14.3729 6.7502 14.0624L6.7502 10.6873Z" fill-rule="evenodd"/>
	</g>
</svg>
