<?xml version="1.0" encoding="utf-8" ?>
<svg xmlns="http://www.w3.org/2000/svg" xmlns:xlink="http://www.w3.org/1999/xlink" width="54" height="54">
	<defs>
		<clipPath id="clip_0">
			<rect x="-1246" y="-2537" width="1440" height="2628" clip-rule="evenodd"/>
		</clipPath>
	</defs>
	<g clip-path="url(#clip_0)">
		<path fill="rgb(96,96,96)" stroke="none" d="M27.5 0L29 1.46166L27.5 3L26 1.46166L27.5 0ZM26.2783 8.79155C25.8716 10.2817 24.5255 12 21.5339 12L17.9759 12C17.9759 12 17.3524 11.2097 17.1963 10.8184C16.6353 9.41025 17.3515 8.75351 18.4001 8.75351L19.7544 9.90217L21.1088 8.75351C22.1574 8.75351 22.8736 9.41025 22.3126 10.8184C22.241 10.9984 22.0702 11.263 21.9067 11.4954C23.1693 11.3331 24.7807 10.5242 25.1352 8.79155C25.1352 8.79155 24.2013 7.40454 23.9681 6.84332C23.1261 4.82493 24.2004 4 25.7715 4L27.7998 6.23138L29.8281 4C31.3992 4 32.4735 4.82493 31.6324 6.84332C31.3983 7.40454 30.4654 8.79155 30.4654 8.79155C30.8189 10.5242 32.4303 11.3331 33.6929 11.4954C33.5304 11.263 33.3587 10.9984 33.287 10.8184C32.7251 9.41025 33.4431 8.75351 34.4908 8.75351L35.8452 9.90217L37.1995 8.75351C38.1065 8.75351 38.7664 9.24567 38.5628 10.2914C38.157 10.5512 37.6265 10.7097 37.0038 10.7097C37.0038 10.7097 36.9911 11.0213 37.012 11.0461C37.5443 11.0235 38.0087 10.9391 38.4076 10.8075C38.4062 10.8111 38.4048 10.8147 38.4033 10.8184C38.2472 11.2097 37.6247 12 37.6247 12L34.0666 12C31.0741 12 29.729 10.2817 29.3222 8.79155L26.2783 8.79155ZM38.4076 10.8075C38.4808 10.6225 38.5318 10.4505 38.5628 10.2914C39.6426 9.59988 39.8383 8.19057 38.5328 7.14119C39.2393 5.21946 40.2138 6.11629 41.1707 6.99685C41.5186 7.31705 41.8642 7.63509 42.1937 7.81468C42.8901 8.19435 44.8141 7.96779 44.9657 8.71783C45.0497 9.1314 44.7726 9.38343 44.4565 9.67093C43.9524 10.1295 43.3489 10.6783 43.9534 12.117C43.4585 11.7915 41.6263 10.8806 42.0693 12.6212C41.8769 12.6212 41.2495 12.2508 41.2495 11.7458C41.2495 10.6618 42.97 10.1669 42.97 9.12224C42.97 7.56338 40.0936 7.56957 40.1817 7.81468C40.5819 8.92912 40.047 10.2666 38.4076 10.8075ZM21 6.01139L19.9995 5L19 6.01139L19.9995 7L21 6.01139ZM36 6.01139L34.9995 5L34 6.01139L34.9995 7L36 6.01139ZM11.9124 12.6212C12.3545 10.8806 10.5223 11.7915 10.0274 12.117C10.6319 10.6782 10.0286 10.1294 9.52448 9.67075C9.20851 9.38333 8.93148 9.13132 9.01508 8.71783C9.16671 7.96779 11.0907 8.19435 11.7871 7.81468C12.1166 7.63509 12.4622 7.31705 12.8101 6.99685C13.7669 6.11629 14.7415 5.21946 15.4479 7.14119C13.6529 8.58483 14.6979 10.7097 16.9769 10.7097C16.9769 10.7097 16.9896 11.0213 16.9696 11.0461C14.2503 10.9309 13.3024 9.20033 13.7991 7.81468C13.8871 7.56957 11.0108 7.56338 11.0108 9.12224C11.0108 10.1669 12.7313 10.6618 12.7313 11.7458C12.7313 12.2508 12.1039 12.6212 11.9124 12.6212ZM11.1045 26.2302C10.9948 26.0306 10.8922 25.8267 10.7968 25.6187C10.7968 25.6187 6.02296 26.7019 3.76181 26.3431C1.51405 25.9868 0.198392 24.3796 0.451712 22.3782C0.457955 22.3276 0.518609 22.2973 0.56856 22.3217C1.24111 22.6486 5.15329 24.4048 10.1617 23.7546C10.1091 23.5246 10.0663 23.293 10.0297 23.0613C6.69283 22.678 3.98035 22.1347 2.25171 21.2115C0.283129 20.1586 -0.578514 17.6468 0.414249 15.7759C0.439224 15.7287 0.512366 15.7203 0.548936 15.7616C1.09928 16.3681 4.52356 19.9413 9.91819 21.0532C9.93157 20.7828 9.95744 20.5158 9.99401 20.2504C7.37251 18.8227 4.81255 17.1776 3.59323 15.6731C1.75042 13.3997 1.92079 10.4995 3.67173 9.0195C3.71008 8.98749 3.77252 8.99592 3.79838 9.03719C4.35765 9.92165 9.54803 17.9744 15.2459 21.4516C15.3039 21.487 15.3806 21.5325 15.4582 21.5771C15.6206 21.6723 15.6393 21.8761 15.4993 21.9966C14.8428 22.5685 14.4333 23.3654 14.4333 24.249C14.4333 25.7854 15.6669 27.0633 17.2984 27.3404C18.1261 27.4945 19.3222 27.4499 20.4711 27.0852C20.5228 27.0692 20.5772 27.102 20.5772 27.1517L20.5772 32.0179C20.5772 32.0963 20.4533 32.1156 20.4229 32.0407C19.7245 30.2642 17.6346 29.8868 16.7195 29.8868C16.3903 31.7854 15.8034 33.3581 15.0399 34.2046C13.7965 35.5802 11.7655 35.5608 10.8851 34.6098C10.8548 34.5769 10.8646 34.5256 10.9047 34.5037C11.4221 34.2181 14.3816 32.4736 14.9739 29.6147C14.7411 29.5372 14.5127 29.4496 14.2933 29.346C13.338 30.8639 11.9474 32.2159 10.8289 32.7322C8.94773 33.5981 7.22623 33.177 6.4627 31.9093C6.43594 31.8646 6.46894 31.809 6.52514 31.804C7.68827 31.7147 11.257 30.7325 12.7779 28.3394C12.6039 28.1861 12.4344 28.0261 12.2748 27.8559C10.6844 29.0183 8.43485 30.046 6.82573 30.2557C4.94189 30.5017 2.8083 29.9247 2.75567 27.8222C2.75478 27.7809 2.79403 27.7447 2.8413 27.7473C3.51385 27.7868 7.94605 27.9705 11.1045 26.2302ZM53.0083 22.3213C52.3412 22.6456 48.4274 24.4061 43.414 23.755C43.4666 23.525 43.5094 23.2934 43.546 23.0617C46.8826 22.6785 49.5949 22.1352 51.3235 21.212C53.2937 20.1591 54.1553 17.6456 53.1608 15.7756C53.135 15.7284 53.0636 15.72 53.0279 15.7596C52.483 16.3619 49.0562 19.9409 43.6575 21.0536C43.6432 20.7832 43.6182 20.5162 43.5808 20.2509C46.203 18.8231 48.7628 17.1781 49.982 15.6737C51.8247 13.3994 51.6553 10.4984 49.9018 9.01931C49.8643 8.9873 49.8037 8.99657 49.7778 9.03616C49.223 9.9147 44.0303 17.9732 38.3292 21.452C38.2721 21.4874 38.1954 21.5329 38.1187 21.5776C37.9555 21.6727 37.9376 21.8766 38.0768 21.9979C38.7341 22.5698 39.1426 23.3658 39.1426 24.2494C39.1426 25.7858 37.9091 27.0636 36.2787 27.3407C35.4501 27.4949 34.254 27.4502 33.1052 27.0855C33.0535 27.0695 33 27.1024 33 27.1521L33 32.0182C33 32.0965 33.124 32.1159 33.1534 32.0409C33.8518 30.2645 35.9424 29.8871 36.8566 29.8871C37.1858 31.7857 37.7735 33.3583 38.537 34.2049C39.7803 35.5804 41.8103 35.561 42.6906 34.61C42.721 34.5772 42.7121 34.5258 42.671 34.5039C42.1537 34.2183 39.1943 32.4739 38.6021 29.615C38.8358 29.5375 39.0641 29.4499 39.2826 29.3463C40.2379 30.8642 41.6284 32.2161 42.7477 32.7325C44.6279 33.5984 46.3493 33.1772 47.1128 31.9095C47.1404 31.8649 47.1065 31.8093 47.0503 31.8042C45.8873 31.7149 42.3178 30.7328 40.798 28.3397C40.9719 28.1864 41.1423 28.0264 41.301 27.8563C42.8913 29.0187 45.1398 30.0463 46.7497 30.256C48.6335 30.502 50.7678 29.925 50.8195 27.8217C50.8204 27.7796 50.7812 27.7451 50.7348 27.7476C50.065 27.7863 45.6313 27.9716 42.4721 26.2306C42.5818 26.0309 42.6835 25.8271 42.7789 25.619C42.7789 25.619 47.5525 26.7023 49.8144 26.3434C52.062 25.9871 53.3784 24.3783 53.1243 22.3769C53.1171 22.3272 53.0565 22.2977 53.0083 22.3213ZM34.9743 13.4847C37.8577 13.4754 40.5765 13.4667 40.9203 15.255C41.041 15.8811 40.7313 16.8354 40.3967 17.1096C40.3367 16.9112 40.0251 16.2621 39.0387 16.1166C37.5079 15.8917 36.0548 16.441 34.8851 17.3977C35.3381 17.179 35.8003 17.0291 35.9954 17C36.2551 17.0817 37 17.7238 37 18.4467C36.198 17.857 35.0896 17.7934 34.316 17.9172C34.4969 17.7335 34.687 17.5598 34.8851 17.3977C34.5463 17.5613 34.2127 17.7635 34 17.9825C34.0968 17.9575 34.2029 17.9353 34.316 17.9172C32.0907 20.1769 31.2486 23.9357 33.654 25.8695C33.7102 25.9153 33.6779 26 33.6014 26L22.347 26C22.2696 26 22.2373 25.9153 22.2945 25.8695C26.0484 22.8508 21.8898 15.3846 16.9088 16.1166C15.9233 16.2621 15.6108 16.9112 15.5509 17.1096C15.2162 16.8354 14.9065 15.8811 15.0263 15.255C15.3707 13.4667 18.0897 13.4754 20.9731 13.4847C22.8603 13.4908 24.8179 13.4971 26.2263 13C26.2955 13.8625 25.1302 15.2444 24.0165 15.7559C25.9202 17.3627 27.6294 20.6002 27.9733 24.5555C28.3181 20.6002 30.0273 17.3627 31.931 15.7559C30.8173 15.2444 29.653 13.8625 29.7212 13C31.1296 13.4971 33.0872 13.4908 34.9743 13.4847ZM17 18.4467C17.9203 17.7707 19.2424 17.786 20 17.9825C19.5051 17.4707 18.3456 17.0509 18.0056 17C17.7458 17.0817 17 17.7238 17 18.4467ZM24.4193 27.2417L25.1422 29.3028C24.5231 29.4537 23.5276 29.917 23.5276 30.5304C23.5276 31.347 24.9355 31.8787 25.7498 31.8148C25.7094 32.0012 25.756 32.1672 25.8826 32.319C25.5871 32.319 25.0296 32.4601 24.8467 32.6625C24.4149 32.2498 23.7396 32.0998 23.4186 32.351C23.0959 32.6039 23.0862 33.0327 23.423 33.5173C23.6578 33.8529 23.7457 34.1839 23.4819 34.5727C24.4633 34.5727 24.1019 33.2635 24.4861 33.2635C24.436 33.5173 24.4668 33.8111 24.5785 34.1369C24.6524 34.3535 24.6524 34.5071 24.5257 34.7156C24.2091 35.2349 23.7167 36.4279 23.7835 37.5064C23.4617 37.5046 23.2981 37.4239 23.4115 36.9729C23.4538 36.8052 23.3526 36.6853 23.219 36.8922C23.0712 37.1203 23 37.51 23 37.6768C23 38.6373 24.1151 38.8308 24.5407 38.6275C24.5716 38.6582 24.6032 38.6879 24.6356 38.7167L23.0036 38.7167C21.9689 38.7167 21.1314 37.9164 21.1314 36.9288L21.1314 33.8537C18.2173 33.702 15.7908 36.4281 18.9617 41.007C19.2403 41.4401 16.2674 42.1335 14.8728 41.9581C14.5056 41.567 13.9756 41.3204 13.3823 41.3204C13.1209 41.3204 12.8722 41.3697 12.6433 41.4565C12.6433 41.4565 7.16339 36.1285 7.063 36.0764L7.10822 35.9686C7.42025 35.3693 6.94271 34.7161 6.64063 34.7618C6.99155 34.3296 7.00783 32.4376 5.0615 32C5.11848 32.3801 5.14742 33.1557 5.14742 33.1557C5.14742 33.1557 3.64516 32.3216 2.89086 33.0415C2.22792 33.8473 3.14772 35.309 3.14772 35.309C3.14772 35.309 2.37896 35.3282 2 35.2953C2.55713 37.2303 4.42568 37.0932 4.82996 36.7113C4.80373 37.0192 5.47934 37.4577 6.05185 37.106L6.30328 36.9809C6.3476 37.0421 11.6846 42.2203 11.6846 42.2203C11.4395 42.5939 11.3229 43.0525 11.4034 43.5413C11.53 44.3051 12.1495 44.9382 12.9409 45.1026C13.4998 45.2177 14.0253 45.1063 14.4468 44.8532L15.8595 46.1998C15.9852 46.3168 16.1552 46.3899 16.3452 46.3761C16.6907 46.3524 16.9493 46.0646 16.9231 45.7348C16.9123 45.5859 16.8381 45.458 16.7359 45.3612C16.7133 45.3356 15.2969 43.9853 15.2969 43.9853C16.4655 43.1439 18.6424 42.551 20.4495 42.551C20.7669 42.551 20.9162 42.2751 20.8067 42.0047C19.9882 39.9829 21.7482 38.5184 23.5689 39.7106C24.363 40.2305 25.1697 41.2546 25.7775 42.963C22.7901 43.7057 19.0395 45.7522 18.2807 47.9859C17.9885 48.8483 18.9536 50.0241 20.1257 50.2607C20.17 50.2708 20.2125 50.2406 20.2207 50.1977C20.833 46.8631 24.325 44.3781 26.142 43.9561C26.2333 44.2073 26.2035 44.126 26.2948 44.3763C24.3159 45.3374 22.3967 47.3646 21.8486 49.7747C21.5972 50.8783 22.7956 51.8732 23.785 52.1454C23.8348 52.1591 23.8836 52.1235 23.8863 52.0742C24.0744 49.0265 25.385 46.4383 26.5589 45.2607C26.5906 45.4872 26.615 45.7193 26.6313 45.9541C26.6313 45.9541 25.4293 49.3937 25.4293 51.9033C25.4293 53.0709 27.1188 53.8858 27.3684 54C27.6804 53.8858 29.369 53.0709 29.369 51.9033C29.369 49.3937 28.167 45.9541 28.167 45.9541C28.1842 45.7193 28.2077 45.4872 28.2402 45.2607C29.4133 46.4383 30.7247 49.0255 30.9119 52.0732C30.9146 52.1226 30.9644 52.1591 31.0132 52.1454C32.0036 51.8732 33.201 50.8783 32.9505 49.7747C32.4015 47.3646 30.4832 45.3374 28.5043 44.3763C28.5948 44.126 28.5649 44.2073 28.6563 43.9561C30.4742 44.3781 33.9653 46.8631 34.5776 50.1977C34.5857 50.2406 34.6291 50.2708 34.6726 50.2607C35.8438 50.0241 36.8106 48.8483 36.5167 47.9859C35.7597 45.7522 32.0081 43.7057 29.0208 42.963C29.6295 41.2546 30.4362 40.2305 31.2303 39.7106C33.05 38.5184 34.81 39.9829 33.9915 42.0047C33.8821 42.2751 34.0304 42.551 34.3488 42.551C36.3928 42.551 38.9107 43.3092 39.9074 44.3261C40.5441 45.3073 41.7208 45.9349 43.0485 45.8006C44.5571 45.6489 45.7871 44.485 45.9571 43.0461C46.1055 41.7854 45.4706 40.6535 44.4585 40.0368L42.694 41.462L40.9303 40.0368C40.2267 40.4671 39.7093 41.1505 39.5085 41.9517C38.4477 42.1042 35.5553 41.4446 35.8366 41.007C39.0066 36.4281 36.5818 33.702 33.6677 33.8537L33.6677 36.9288C33.6677 37.9164 32.8284 38.7167 31.7947 38.7167L29.7823 38.7167C29.4707 38.7167 29.1825 38.7861 28.9223 38.895L24.742 27.1245C24.655 26.8981 24.3428 27.0064 24.4193 27.2417ZM26.7656 39.4768C25.9984 39.4356 25.2072 39.2248 24.6356 38.7167L25.016 38.7167C25.7474 38.7167 26.3495 39.0993 26.7655 39.4768L26.7656 39.4768ZM26.7656 39.4768C27.1705 39.8442 27.3991 40.2067 27.3991 40.2067C27.3991 40.2067 27.669 39.7787 28.1417 39.3815C28.4985 39.3125 28.7988 39.2158 29 39.1139L28.9223 38.895C28.623 39.0202 28.3606 39.1976 28.1417 39.3815C27.7351 39.4602 27.2552 39.5031 26.7655 39.4768L26.7656 39.4768ZM30.6768 33.6982C30.7077 32.7677 29.8 32.5743 29.2207 32.8133C29.0481 32.8854 28.939 32.9711 28.9798 33.2101C29.129 34.0767 29.2657 34.946 29.4191 35.8874C29.8967 35.3082 30.8794 35.0619 30.8794 35.8044C30.8794 36.6755 30.1951 37.4874 29.2615 38L26 28.0417C26.2359 27.9769 26.6951 27.9642 26.8643 27.9952C26.8052 27.8775 26.7827 27.7681 26.7827 27.6659C26.7827 27.2062 27.0802 27 27.3478 27C27.687 27 27.7937 27.2828 27.7937 27.436C27.7937 27.6951 27.567 27.9459 27.492 28.0098C27.3328 28.1421 27.3628 28.2451 27.4778 28.3956C27.5962 28.5498 27.8429 28.9037 27.8946 29.1181C28.2363 28.5489 29.4799 28.2515 29.9767 28.651C30.5701 29.1272 30.4526 30.1142 29.9458 30.7518C29.8708 30.8467 29.745 30.9899 29.6441 30.9853C29.4824 30.9789 29.4107 30.8448 29.4266 30.6232C29.4287 30.592 29.4318 30.5557 29.4351 30.516C29.4588 30.2346 29.4966 29.784 29.3315 29.784C28.9823 29.784 29.0123 30.4143 29.094 30.75C29.1965 31.165 29.2865 31.5837 29.3966 32.0626C30.2817 31.8993 31.1278 32.3007 30.9544 33.6936C30.9352 33.9089 30.6693 33.9089 30.6768 33.6982ZM26.496 34C25.6118 34.7644 24.9167 35.5568 25.0081 36C25.3908 35.7593 26.1526 35.6525 26.7938 35.6525C26.4248 35.3567 26.3079 34.4982 26.496 34ZM42 38L43 39.0654L42 40L41 39.0654L42 38Z" fill-rule="evenodd"/>
	</g>
</svg>
