<?xml version="1.0" encoding="utf-8" ?>
<svg xmlns="http://www.w3.org/2000/svg" xmlns:xlink="http://www.w3.org/1999/xlink" width="18" height="18">
	<defs>
		<clipPath id="clip_0">
			<rect x="-940" y="-775" width="1440" height="3308" clip-rule="evenodd"/>
		</clipPath>
	</defs>
	<g clip-path="url(#clip_0)">
		<path fill="rgb(0,137,189)" stroke="none" d="M17.0828 6.56149L16.1655 7.46752L10.3604 13.2023L7.91076 15.6221C6.39093 17.1231 3.92687 17.1231 2.40768 15.6221C0.887534 14.1209 0.887534 11.6869 2.40736 10.1859L4.85728 7.76546L6.99321 5.65578L8.61524 4.0536L8.82767 3.84404L9.74523 2.93769L10.6621 2.03102L10.6644 2.03359C10.674 2.02427 10.6811 2.01302 10.6907 2.00305C11.7041 1.00253 13.3467 1.00253 14.3597 2.00305C15.373 3.00422 15.373 4.62633 14.3597 5.6275C14.35 5.6365 14.3388 5.64421 14.3291 5.65385L14.3311 5.65578L13.4138 6.56149L12.4966 7.46752L12.2842 7.67804L10.6621 9.27958L9.65363 10.2766L8.66312 11.2549L7.68515 12.2201L6.07629 13.8101C5.56979 14.3102 4.74833 14.3102 4.24183 13.8101C3.73533 13.3093 3.73533 12.4981 4.24183 11.9974L5.15906 11.092L5.85036 10.409L6.82866 9.44286L7.81917 8.46387L9.74523 6.56149L10.6907 5.6275L11.5794 4.75039L10.6621 3.84404L10.0284 4.47045L8.98804 5.49765L7.91076 6.56149L6.5272 7.92809L5.3715 9.07003L4.24183 10.1859L3.3246 11.092L3.32749 11.0949C2.34373 12.098 2.34984 13.6963 3.3532 14.6881C4.35656 15.6787 5.97506 15.6851 6.99063 14.7132L6.99321 14.7164L9.04043 12.6942L10.1961 11.5519L13.4138 8.37388L14.3311 7.46752L15.2483 6.56149C16.7681 5.06055 16.7681 2.62657 15.2483 1.12595C13.7285 -0.375317 11.2647 -0.375317 9.74523 1.12595L8.82767 2.03134L7.91076 2.93769L1.49013 9.27958L1.49142 9.28087C-0.50567 11.2851 -0.497636 14.5078 1.51873 16.4999C3.53543 18.4913 6.7978 18.5 8.82671 16.5262L8.82767 16.5282L17.0828 8.37388L18 7.46752L17.0828 6.56149L16.1655 7.46752L10.3604 13.2023L7.91076 15.6221C6.39093 17.1231 3.92687 17.1231 2.40768 15.6221C0.887534 14.1209 0.887534 11.6869 2.40736 10.1859L4.85728 7.76546L6.99321 5.65578L8.61524 4.0536L8.82767 3.84404L9.74523 2.93769L10.6621 2.03102L10.6644 2.03359C10.674 2.02427 10.6811 2.01302 10.6907 2.00305C11.7041 1.00253 13.3467 1.00253 14.3597 2.00305C15.373 3.00422 15.373 4.62633 14.3597 5.6275C14.35 5.6365 14.3388 5.64421 14.3291 5.65385L14.3311 5.65578L13.4138 6.56149L12.4966 7.46752L12.2842 7.67804L10.6621 9.27958L9.65363 10.2766L8.66312 11.2549L7.68515 12.2201L6.07629 13.8101C5.56979 14.3102 4.74833 14.3102 4.24183 13.8101C3.73533 13.3093 3.73533 12.4981 4.24183 11.9974L5.15906 11.092L5.85036 10.409L6.82866 9.44286L7.81917 8.46387L9.74523 6.56149L10.6907 5.6275L11.5794 4.75039L10.6621 3.84404L10.0284 4.47045L8.98804 5.49765L7.91076 6.56149L6.5272 7.92809L5.3715 9.07003L4.24183 10.1859L3.3246 11.092L3.32749 11.0949C2.34373 12.098 2.34984 13.6963 3.3532 14.6881C4.35656 15.6787 5.97506 15.6851 6.99063 14.7132L6.99321 14.7164L9.04043 12.6942L10.1961 11.5519L13.4138 8.37388L14.3311 7.46752L15.2483 6.56149C16.7681 5.06055 16.7681 2.62657 15.2483 1.12595C13.7285 -0.375317 11.2647 -0.375317 9.74523 1.12595L8.82767 2.03134L7.91076 2.93769L1.49013 9.27958L1.49142 9.28087C-0.50567 11.2851 -0.497636 14.5078 1.51873 16.4999C3.53543 18.4913 6.7978 18.5 8.82671 16.5262L8.82767 16.5282L17.0828 8.37388L18 7.46752L17.0828 6.56149Z"/>
	</g>
</svg>
