<?xml version="1.0" encoding="utf-8" ?>
<svg xmlns="http://www.w3.org/2000/svg" xmlns:xlink="http://www.w3.org/1999/xlink" width="16" height="18">
	<defs>
		<clipPath id="clip_0">
			<rect x="-401.80005" y="-1369.5" width="1368" height="3142.5999" clip-rule="evenodd"/>
		</clipPath>
	</defs>
	<g clip-path="url(#clip_0)">
		<path fill="rgb(0,137,189)" stroke="none" transform="matrix(0.95 0 0 0.95 0.0500488 1.35)" d="M1.125 1.125C1.125 0.504281 1.62872 0 2.25 0L14.625 0C15.2463 0 15.75 0.504281 15.75 1.125L15.75 16.875C15.75 17.4963 15.2463 18 14.625 18L2.25 18C1.62872 18 1.125 17.4963 1.125 16.875L1.125 14.625L0.5625 14.625C0.252 14.625 0 14.373 0 14.0625C0 13.7517 0.252 13.5 0.5625 13.5L1.125 13.5L1.125 11.25L0.5625 11.25C0.252 11.25 0 10.9983 0 10.6875C0 10.3767 0.252 10.125 0.5625 10.125L1.125 10.125L1.125 7.875L0.5625 7.875C0.252 7.875 0 7.62328 0 7.3125C0 7.00172 0.252 6.75 0.5625 6.75L1.125 6.75L1.125 4.5L0.5625 4.5C0.252 4.5 0 4.24828 0 3.9375C0 3.62672 0.252 3.375 0.5625 3.375L1.125 3.375L1.125 1.125ZM2.8125 16.875C2.502 16.875 2.25 16.6233 2.25 16.3125L2.25 14.625L2.8125 14.625C3.123 14.625 3.375 14.373 3.375 14.0625C3.375 13.7517 3.123 13.5 2.8125 13.5L2.25 13.5L2.25 11.25L2.8125 11.25C3.123 11.25 3.375 10.9983 3.375 10.6875C3.375 10.3767 3.123 10.125 2.8125 10.125L2.25 10.125L2.25 7.875L2.8125 7.875C3.123 7.875 3.375 7.62328 3.375 7.3125C3.375 7.00172 3.123 6.75 2.8125 6.75L2.25 6.75L2.25 4.5L2.8125 4.5C3.123 4.5 3.375 4.24828 3.375 3.9375C3.375 3.62672 3.123 3.375 2.8125 3.375L2.25 3.375L2.25 1.6875C2.25 1.37672 2.502 1.125 2.8125 1.125L11.25 1.125L11.25 16.875L2.8125 16.875ZM14.625 16.3125C14.625 16.6233 14.373 16.875 14.0625 16.875L12.375 16.875L12.375 1.125L14.0625 1.125C14.373 1.125 14.625 1.37672 14.625 1.6875L14.625 16.3125Z" fill-rule="evenodd"/>
	</g>
</svg>
