<?xml version="1.0" encoding="utf-8" ?>
<svg xmlns="http://www.w3.org/2000/svg" xmlns:xlink="http://www.w3.org/1999/xlink" width="160" height="28">
	<defs>
		<clipPath id="clip_0">
			<rect x="-140" y="-14" width="1440" height="2628" clip-rule="evenodd"/>
		</clipPath>
	</defs>
	<g clip-path="url(#clip_0)">
		<path fill="rgb(8,121,164)" stroke="none" transform="translate(7.86885 20.1093)" d="M6.99454 6.38115C6.99454 6.71928 6.7291 6.99454 6.4041 6.99454L0.593021 6.99454C0.260256 6.99454 0 6.71928 0 6.38115L0 0.62037C0 0.276652 0.260256 0 0.593021 0L6.4041 0C6.7291 0 6.99454 0.276652 6.99454 0.62037L6.99454 6.38115C6.99454 6.71928 6.7291 6.99454 6.4041 6.99454L0.593021 6.99454C0.260256 6.99454 0 6.71928 0 6.38115L0 0.62037C0 0.276652 0.260256 0 0.593021 0L6.4041 0C6.7291 0 6.99454 0.276652 6.99454 0.62037L6.99454 6.38115Z"/>
	</g>
	<defs>
		<clipPath id="clip_1">
			<rect x="-140" y="-14" width="1440" height="2628" clip-rule="evenodd"/>
		</clipPath>
	</defs>
	<g clip-path="url(#clip_1)">
		<path fill="rgb(224,143,58)" stroke="none" transform="translate(9.61749 7.8689)" d="M12.2404 8.15188C12.2404 8.47775 11.9655 8.74317 11.617 8.74317L0.612566 8.74317C0.277697 8.74317 0 8.47775 0 8.15188L0 0.583404C0 0.266736 0.277697 0 0.612566 0L11.617 0C11.9655 0 12.2404 0.266736 12.2404 0.583404L12.2404 8.15188C12.2404 8.47775 11.9655 8.74317 11.617 8.74317L0.612566 8.74317C0.277697 8.74317 0 8.47775 0 8.15188L0 0.583404C0 0.266736 0.277697 0 0.612566 0L11.617 0C11.9655 0 12.2404 0.266736 12.2404 0.583404L12.2404 8.15188Z"/>
	</g>
	<defs>
		<clipPath id="clip_2">
			<rect x="-140" y="-14" width="1440" height="2628" clip-rule="evenodd"/>
		</clipPath>
	</defs>
	<g clip-path="url(#clip_2)">
		<path fill="rgb(8,121,164)" stroke="none" transform="translate(24.4809 6.99451)" d="M4.37158 9.89197C4.37158 10.2256 4.12602 10.4918 3.80872 10.4918L0.555566 10.4918C0.244352 10.4918 0 10.2256 0 9.89197L0 0.593337C0 0.266158 0.244352 0 0.555566 0L3.80872 0C4.12602 0 4.37158 0.266158 4.37158 0.593337L4.37158 9.89197C4.37158 10.2256 4.12602 10.4918 3.80872 10.4918L0.555566 10.4918C0.244352 10.4918 0 10.2256 0 9.89197L0 0.593337C0 0.266158 0.244352 0 0.555566 0L3.80872 0C4.12602 0 4.37158 0.266158 4.37158 0.593337L4.37158 9.89197Z"/>
	</g>
	<defs>
		<clipPath id="clip_3">
			<rect x="-140" y="-14" width="1440" height="2628" clip-rule="evenodd"/>
		</clipPath>
	</defs>
	<g clip-path="url(#clip_3)">
		<path fill="rgb(46,179,222)" stroke="none" transform="translate(24.4809 0)" d="M4.37158 3.78949C4.37158 4.11765 4.12013 4.37158 3.82698 4.37158L0.545835 4.37158C0.248999 4.37158 0 4.11765 0 3.78949L0 0.584701C0 0.259144 0.248999 0 0.545835 0L3.82698 0C4.12013 0 4.37158 0.259144 4.37158 0.584701L4.37158 3.78949C4.37158 4.11765 4.12013 4.37158 3.82698 4.37158L0.545835 4.37158C0.248999 4.37158 0 4.11765 0 3.78949L0 0.584701C0 0.259144 0.248999 0 0.545835 0L3.82698 0C4.12013 0 4.37158 0.259144 4.37158 0.584701L4.37158 3.78949Z"/>
	</g>
	<defs>
		<clipPath id="clip_4">
			<rect x="-140" y="-14" width="1440" height="2628" clip-rule="evenodd"/>
		</clipPath>
	</defs>
	<g clip-path="url(#clip_4)">
		<path fill="rgb(8,121,164)" stroke="none" transform="translate(12.2404 0)" d="M6.99454 3.78463C6.99454 4.10739 6.73745 4.37158 6.42194 4.37158L0.572599 4.37158C0.26098 4.37158 0 4.10739 0 3.78463L0 0.584353C0 0.258989 0.26098 0 0.572599 0L6.42194 0C6.73745 0 6.99454 0.258989 6.99454 0.584353L6.99454 3.78463C6.99454 4.10739 6.73745 4.37158 6.42194 4.37158L0.572599 4.37158C0.26098 4.37158 0 4.10739 0 3.78463L0 0.584353C0 0.258989 0.26098 0 0.572599 0L6.42194 0C6.73745 0 6.99454 0.258989 6.99454 0.584353L6.99454 3.78463Z"/>
	</g>
	<defs>
		<clipPath id="clip_5">
			<rect width="7.0722623" height="9.4018364" clip-rule="evenodd"/>
		</clipPath>
	</defs>
	<g clip-path="url(#clip_5)">
		<path fill="rgb(127,180,59)" stroke="none" d="M7.07279 8.81443C7.07279 9.14229 6.81049 9.40197 6.49049 9.40197L0.58623 9.40197C0.262295 9.40197 0 9.14229 0 8.81443L0 0.590164C0 0.26623 0.262295 0 0.58623 0L6.49049 0C6.81049 0 7.07279 0.26623 7.07279 0.590164L7.07279 8.81443C7.07279 9.14229 6.81049 9.40197 6.49049 9.40197L0.58623 9.40197C0.262295 9.40197 0 9.14229 0 8.81443L0 0.590164C0 0.26623 0.262295 0 0.58623 0L6.49049 0C6.81049 0 7.07279 0.26623 7.07279 0.590164L7.07279 8.81443Z"/>
	</g>
	<defs>
		<clipPath id="clip_6">
			<rect x="-140" y="-14" width="1440" height="2628" clip-rule="evenodd"/>
		</clipPath>
	</defs>
	<g clip-path="url(#clip_6)">
		<path fill="rgb(216,81,146)" stroke="none" transform="translate(17.4863 20.1093)" d="M4.37158 6.36621C4.37158 6.70075 4.12723 6.99454 3.83547 6.99454L0.540978 6.99454C0.245567 6.99454 0 6.70075 0 6.36621L0 0.628327C0 0.29097 0.245567 0 0.540978 0L3.83547 0C4.12723 0 4.37158 0.29097 4.37158 0.628327L4.37158 6.36621C4.37158 6.70075 4.12723 6.99454 3.83547 6.99454L0.540978 6.99454C0.245567 6.99454 0 6.70075 0 6.36621L0 0.628327C0 0.29097 0.245567 0 0.540978 0L3.83547 0C4.12723 0 4.37158 0.29097 4.37158 0.628327L4.37158 6.36621Z"/>
	</g>
	<defs>
		<clipPath id="clip_7">
			<rect x="-140" y="-14" width="1440" height="2628" clip-rule="evenodd"/>
		</clipPath>
	</defs>
	<g clip-path="url(#clip_7)">
		<path fill="rgb(8,121,164)" stroke="none" transform="translate(24.4809 22.7323)" d="M4.37158 3.78461C4.37158 4.09052 4.1186 4.37158 3.82162 4.37158L0.553628 4.37158C0.248094 4.37158 0 4.09052 0 3.78461L0 0.580438C0 0.248386 0.248094 0 0.553628 0L3.82162 0C4.1186 0 4.37158 0.248386 4.37158 0.580438L4.37158 3.78461C4.37158 4.09052 4.1186 4.37158 3.82162 4.37158L0.553628 4.37158C0.248094 4.37158 0 4.09052 0 3.78461L0 0.580438C0 0.248386 0.248094 0 0.553628 0L3.82162 0C4.1186 0 4.37158 0.248386 4.37158 0.580438L4.37158 3.78461Z"/>
	</g>
	<defs>
		<clipPath id="clip_8">
			<rect x="-140" y="-14" width="1440" height="2628" clip-rule="evenodd"/>
		</clipPath>
	</defs>
	<g clip-path="url(#clip_8)">
		<path fill="rgb(8,121,164)" stroke="none" transform="translate(0 12.2405)" d="M6.99454 5.5005C6.99454 5.83853 6.73878 6.12022 6.41715 6.12022L0.574805 6.12022C0.257048 6.12022 0 5.83853 0 5.5005L0 0.611472C0 0.262452 0.257048 0 0.574805 0L6.41715 0C6.73878 0 6.99454 0.262452 6.99454 0.611472L6.99454 5.5005C6.99454 5.83853 6.73878 6.12022 6.41715 6.12022L0.574805 6.12022C0.257048 6.12022 0 5.83853 0 5.5005L0 0.611472C0 0.262452 0.257048 0 0.574805 0L6.41715 0C6.73878 0 6.99454 0.262452 6.99454 0.611472L6.99454 5.5005Z"/>
	</g>
	<defs>
		<clipPath id="clip_9">
			<rect x="-140" y="-14" width="1440" height="2628" clip-rule="evenodd"/>
		</clipPath>
	</defs>
	<g clip-path="url(#clip_9)">
		<path fill="rgb(8,121,164)" stroke="none" transform="translate(0 22.7323)" d="M5.2459 3.77261C5.2459 4.10407 4.95596 4.37158 4.59638 4.37158L0.626779 4.37158C0.282832 4.37158 0 4.10407 0 3.77261L0 0.593753C0 0.267515 0.282832 0 0.626779 0L4.59638 0C4.95596 0 5.2459 0.267515 5.2459 0.593753L5.2459 3.77261C5.2459 4.10407 4.95596 4.37158 4.59638 4.37158L0.626779 4.37158C0.282832 4.37158 0 4.10407 0 3.77261L0 0.593753C0 0.267515 0.282832 0 0.626779 0L4.59638 0C4.95596 0 5.2459 0.267515 5.2459 0.593753L5.2459 3.77261Z"/>
	</g>
	<defs>
		<clipPath id="clip_10">
			<rect x="-140" y="-14" width="1440" height="2628" clip-rule="evenodd"/>
		</clipPath>
	</defs>
	<g clip-path="url(#clip_10)">
		<path fill="rgb(88,88,91)" stroke="none" transform="translate(41 13)" d="M14.1171 0L16.612 0L16.612 13.9891L14.8 13.9891L14.8 4.80102L14.9829 1.99506L9.27715 13.6211L7.35724 13.6211L1.65541 1.99506L1.81201 4.80102L1.81201 13.9891L0 13.9891L0 0L2.5226 0L8.33233 11.6838L14.1171 0L16.612 0L16.612 13.9891L14.8 13.9891L14.8 4.80102L14.9829 1.99506L9.27715 13.6211L7.35724 13.6211L1.65541 1.99506L1.81201 4.80102L1.81201 13.9891L0 13.9891L0 0L2.5226 0L8.33233 11.6838L14.1171 0Z"/>
	</g>
	<defs>
		<clipPath id="clip_11">
			<rect x="-140" y="-14" width="1440" height="2628" clip-rule="evenodd"/>
		</clipPath>
	</defs>
	<g clip-path="url(#clip_11)">
		<path fill="rgb(88,88,91)" stroke="none" transform="translate(65 13)" d="M6.984 12.3213C10.2028 12.3213 12.2223 10.2381 12.2223 6.99322C12.2223 3.75486 10.2028 1.67043 6.984 1.67043C3.78756 1.67043 1.74831 3.73384 1.74831 6.99322C1.74831 10.2618 3.78756 12.3213 6.984 12.3213L6.984 12.3213C10.2028 12.3213 12.2223 10.2381 12.2223 6.99322C12.2223 3.75486 10.2028 1.67043 6.984 1.67043C3.78756 1.67043 1.74831 3.73384 1.74831 6.99322C1.74831 10.2618 3.78756 12.3213 6.984 12.3213M6.984 0C11.1626 0 13.9891 2.82042 13.9891 6.99322C13.9891 11.1687 11.1626 13.9891 6.984 13.9891C2.80545 13.9891 0 11.1687 0 6.99322C0 2.82042 2.80545 0 6.984 0L6.984 0C11.1626 0 13.9891 2.82042 13.9891 6.99322C13.9891 11.1687 11.1626 13.9891 6.984 13.9891C2.80545 13.9891 0 11.1687 0 6.99322C0 2.82042 2.80545 0 6.984 0"/>
	</g>
	<defs>
		<clipPath id="clip_12">
			<rect x="-140" y="-14" width="1440" height="2628" clip-rule="evenodd"/>
		</clipPath>
	</defs>
	<g clip-path="url(#clip_12)">
		<path fill="rgb(88,88,91)" stroke="none" transform="translate(87 13)" d="M13.9891 8.76354C13.6056 11.856 10.8592 13.9891 7.28938 13.9891C2.92235 13.9891 0 11.1687 0 6.99322C0 2.82173 2.92235 0 7.28938 0C10.7808 0 13.4021 1.96352 13.8599 4.78656L12.0124 4.78656C11.3458 2.72185 9.64953 1.61655 7.24127 1.61655C4.02751 1.61655 1.81994 3.73384 1.81994 6.99322C1.81994 10.2618 3.95328 12.3213 7.28938 12.3213C9.80761 12.3213 11.7059 10.9268 12.1705 8.76354L13.9891 8.76354C13.6056 11.856 10.8592 13.9891 7.28938 13.9891C2.92235 13.9891 0 11.1687 0 6.99322C0 2.82173 2.92235 0 7.28938 0C10.7808 0 13.4021 1.96352 13.8599 4.78656L12.0124 4.78656C11.3458 2.72185 9.64953 1.61655 7.24127 1.61655C4.02751 1.61655 1.81994 3.73384 1.81994 6.99322C1.81994 10.2618 3.95328 12.3213 7.28938 12.3213C9.80761 12.3213 11.7059 10.9268 12.1705 8.76354L13.9891 8.76354Z"/>
	</g>
	<defs>
		<clipPath id="clip_13">
			<rect x="-140" y="-14" width="1440" height="2628" clip-rule="evenodd"/>
		</clipPath>
	</defs>
	<g clip-path="url(#clip_13)">
		<path fill="rgb(88,88,91)" stroke="none" transform="translate(107 13)" d="M0 0L1.87308 0L1.87308 6.48328L10.1302 0L12.9157 0L6.40417 5.12039L13.9891 13.9891L11.4948 13.9891L4.87457 6.27432L1.87308 8.65971L1.87308 13.9891L0 13.9891L0 0L1.87308 0L1.87308 6.48328L10.1302 0L12.9157 0L6.40417 5.12039L13.9891 13.9891L11.4948 13.9891L4.87457 6.27432L1.87308 8.65971L1.87308 13.9891L0 13.9891L0 0Z"/>
	</g>
	<defs>
		<clipPath id="clip_14">
			<rect x="-140" y="-14" width="1440" height="2628" clip-rule="evenodd"/>
		</clipPath>
	</defs>
	<g clip-path="url(#clip_14)">
		<path fill="rgb(88,88,91)" stroke="none" transform="translate(126 13)" d="M11.799 3.80481C11.799 1.41678 10.3722 0 7.36789 0L0 0L0 13.9891L7.18353 13.9891C10.6331 13.9891 12.2404 12.6262 12.2404 9.92273C12.2404 8.21549 11.4887 7.00636 9.95931 6.64231C11.1252 6.11923 11.799 5.22422 11.799 3.80481ZM7.2887 6.09163C8.63374 6.09163 9.95932 5.38193 9.95932 4.0164C9.95932 2.20403 9.15437 1.65335 6.76938 1.65335L1.78907 1.65335L1.78907 6.09163L7.2887 6.09163ZM7.1316 12.3383C9.67239 12.3383 10.4007 11.6838 10.4007 9.94901C10.4007 8.34955 9.72562 7.5071 7.26143 7.5071L1.78907 7.5071L1.78907 12.3383L7.1316 12.3383Z" fill-rule="evenodd"/>
	</g>
	<defs>
		<clipPath id="clip_15">
			<rect x="-140" y="-14" width="1440" height="2628" clip-rule="evenodd"/>
		</clipPath>
	</defs>
	<g clip-path="url(#clip_15)">
		<path fill="rgb(88,88,91)" stroke="none" transform="translate(145 13)" d="M12.5102 14.1283C13.0085 14.1283 13.5108 14.027 13.983 13.8716L13.983 12.3217C13.6879 12.4271 13.4321 12.4515 13.2315 12.4515C12.5338 12.4515 12.5102 11.9893 12.5102 11.0867L12.5102 5.00221C12.5102 3.6091 12.4564 2.55515 11.7338 1.62416C10.8039 0.439146 9.23148 0 6.82885 0C2.84721 0 0.772459 1.59714 0.573115 4.81844L2.29902 4.81844C2.42492 2.68081 4 1.62416 7.05311 1.62416C9.48197 1.62416 10.7567 2.42273 10.7567 3.91853C10.7567 5.74808 9.35607 5.59404 6.1259 6.05615C3.92393 6.36829 2.34885 6.62637 1.39803 7.34657C0.47082 8.06812 0 9.0464 0 10.2882C0 12.8622 1.7718 14.3824 5.05049 14.3824C7.50164 14.3824 9.23148 13.7149 10.7567 11.9623C10.8826 13.5095 11.3325 14.1283 12.5102 14.1283ZM1.7482 10.3395C1.7482 8.48159 3.22492 8.17351 6.15213 7.70734C8.42886 7.34657 9.97902 7.06416 10.7567 6.62637L10.7567 8.48159C10.7567 11.034 8.47738 12.7595 5.20263 12.7595C2.99935 12.7595 1.7482 11.7569 1.7482 10.3395Z" fill-rule="evenodd"/>
	</g>
	<defs>
		<clipPath id="clip_16">
			<rect x="-140" y="-14" width="1440" height="2628" clip-rule="evenodd"/>
		</clipPath>
	</defs>
	<g clip-path="url(#clip_16)">
		<path fill="rgb(88,88,91)" stroke="none" transform="translate(41.0929 0.874268)" d="M2.1355 0C4.07886 0 4.37158 2.09346 4.37158 3.82221C4.37158 5.575 4.25166 7.86885 2.15613 7.86885C0.658962 7.86885 0.0128955 6.78939 0.0128955 4.96847L0.809839 4.96847C0.861421 6.20424 1.06001 7.11269 2.11229 7.11269C3.34768 7.11269 3.53338 5.70993 3.53338 4.1081L1.61194 4.1081L1.61194 3.35194L3.53338 3.35194C3.53338 2.29519 3.33994 0.75215 2.11229 0.75215C1.17607 0.75215 0.871738 1.49762 0.809839 2.41142L0 2.41142C0.060609 0.953881 0.809839 0 2.1355 0L2.1355 0C4.07886 0 4.37158 2.09346 4.37158 3.82221C4.37158 5.575 4.25166 7.86885 2.15613 7.86885C0.658962 7.86885 0.0128955 6.78939 0.0128955 4.96847L0.809839 4.96847C0.861421 6.20424 1.06001 7.11269 2.11229 7.11269C3.34768 7.11269 3.53338 5.70993 3.53338 4.1081L1.61194 4.1081L1.61194 3.35194L3.53338 3.35194C3.53338 2.29519 3.33994 0.75215 2.11229 0.75215C1.17607 0.75215 0.871738 1.49762 0.809839 2.41142L0 2.41142C0.060609 0.953881 0.809839 0 2.1355 0"/>
	</g>
	<defs>
		<clipPath id="clip_17">
			<rect x="-140" y="-14" width="1440" height="2628" clip-rule="evenodd"/>
		</clipPath>
	</defs>
	<g clip-path="url(#clip_17)">
		<path fill="rgb(88,88,91)" stroke="none" transform="translate(51.5847 0.874268)" d="M5.2459 0L5.2459 7.76869L4.42619 7.76869L4.42619 0.775934L1.95188 0.775934L1.95188 3.85296C1.95188 5.59046 1.92278 7.86885 0.490815 7.86885C0.336487 7.86885 0.161918 7.84615 0 7.80341L0 7.03683C0.110054 7.07956 0.223903 7.08891 0.317512 7.08891C1.07271 7.08891 1.13469 5.88428 1.13469 3.38687L1.13469 0L5.2459 0L5.2459 7.76869L4.42619 7.76869L4.42619 0.775934L1.95188 0.775934L1.95188 3.85296C1.95188 5.59046 1.92278 7.86885 0.490815 7.86885C0.336487 7.86885 0.161918 7.84615 0 7.80341L0 7.03683C0.110054 7.07956 0.223903 7.08891 0.317512 7.08891C1.07271 7.08891 1.13469 5.88428 1.13469 3.38687L1.13469 0L5.2459 0Z"/>
	</g>
	<defs>
		<clipPath id="clip_18">
			<rect x="-140" y="-14" width="1440" height="2628" clip-rule="evenodd"/>
		</clipPath>
	</defs>
	<g clip-path="url(#clip_18)">
		<path fill="rgb(88,88,91)" stroke="none" transform="translate(63.8251 0.874268)" d="M3.48771 0L3.48771 0.785938L0.773319 0.785938L0.773319 3.34396L3.3132 3.34396L3.3132 4.13125L0.773319 4.13125L0.773319 7.08291L3.49727 7.08291L3.49727 7.86885L0 7.86885L0 0L3.48771 0L3.48771 0.785938L0.773319 0.785938L0.773319 3.34396L3.3132 3.34396L3.3132 4.13125L0.773319 4.13125L0.773319 7.08291L3.49727 7.08291L3.49727 7.86885L0 7.86885L0 0L3.48771 0Z"/>
	</g>
	<defs>
		<clipPath id="clip_19">
			<rect x="-140" y="-14" width="1440" height="2628" clip-rule="evenodd"/>
		</clipPath>
	</defs>
	<g clip-path="url(#clip_19)">
		<path fill="rgb(88,88,91)" stroke="none" transform="translate(74.3169 0.874268)" d="M0.935529 4.04332L3.9966 0L5.16637 0L2.47691 3.28985L5.2459 7.86885L4.15855 7.86885L1.91733 3.97974L0.935529 5.12821L0.935529 7.86885L0 7.86885L0 0L0.935529 0L0.935529 4.04332L3.9966 0L5.16637 0L2.47691 3.28985L5.2459 7.86885L4.15855 7.86885L1.91733 3.97974L0.935529 5.12821L0.935529 7.86885L0 7.86885L0 0L0.935529 0L0.935529 4.04332Z"/>
	</g>
	<defs>
		<clipPath id="clip_20">
			<rect x="-140" y="-14" width="1440" height="2628" clip-rule="evenodd"/>
		</clipPath>
	</defs>
	<g clip-path="url(#clip_20)">
		<path fill="rgb(88,88,91)" stroke="none" transform="translate(84.8087 0.874268)" d="M3.09054 7.86885L2.16682 7.86885L2.16682 0.785938L0 0.785938L0 0L5.2459 0L5.2459 0.785938L3.09054 0.785938L3.09054 7.86885L2.16682 7.86885L2.16682 0.785938L0 0.785938L0 0L5.2459 0L5.2459 0.785938L3.09054 0.785938L3.09054 7.86885Z"/>
	</g>
	<defs>
		<clipPath id="clip_21">
			<rect x="-140" y="-14" width="1440" height="2628" clip-rule="evenodd"/>
		</clipPath>
	</defs>
	<g clip-path="url(#clip_21)">
		<path fill="rgb(88,88,91)" stroke="none" transform="translate(96.1749 0.874268)" d="M4.37158 2.21848C4.37158 0.665545 3.47003 0 2.09758 0L0 0L0 7.86885L0.837995 7.86885L0.837995 4.53572L1.94062 4.53572C3.30269 4.53572 4.37158 4.0555 4.37158 2.21848ZM3.50116 2.21848C3.50116 3.56445 2.80975 3.74843 1.65653 3.74843L0.837997 3.74843L0.837997 0.785938L1.89781 0.785938C2.90185 0.785938 3.50116 1.10383 3.50116 2.21848Z" fill-rule="evenodd"/>
	</g>
	<defs>
		<clipPath id="clip_22">
			<rect x="-140" y="-14" width="1440" height="2628" clip-rule="evenodd"/>
		</clipPath>
	</defs>
	<g clip-path="url(#clip_22)">
		<path fill="rgb(88,88,91)" stroke="none" transform="translate(107.541 0.874268)" d="M2.59832 0.752278C1.24004 0.752278 0.919121 2.0858 0.919121 3.77208C0.919121 5.9621 1.16122 7.1139 2.61802 7.1139C4.08046 7.1139 4.33241 5.9621 4.33241 3.78143C4.33241 2.09382 3.99741 0.752278 2.59832 0.752278L2.59832 0.752278C1.24004 0.752278 0.919121 2.0858 0.919121 3.77208C0.919121 5.9621 1.16122 7.1139 2.61802 7.1139C4.08046 7.1139 4.33241 5.9621 4.33241 3.78143C4.33241 2.09382 3.99741 0.752278 2.59832 0.752278M0 3.90837C0 2.17666 0.299806 0 2.61802 0C4.95173 0 5.2459 2.17666 5.2459 3.90837C5.2459 5.99551 4.93906 7.86885 2.61802 7.86885C0.299806 7.86885 0 5.99551 0 3.90837L0 3.90837C0 2.17666 0.299806 0 2.61802 0C4.95173 0 5.2459 2.17666 5.2459 3.90837C5.2459 5.99551 4.93906 7.86885 2.61802 7.86885C0.299806 7.86885 0 5.99551 0 3.90837"/>
	</g>
	<defs>
		<clipPath id="clip_23">
			<rect x="-140" y="-14" width="1440" height="2628" clip-rule="evenodd"/>
		</clipPath>
	</defs>
	<g clip-path="url(#clip_23)">
		<path fill="rgb(88,88,91)" stroke="none" transform="translate(118.907 0.874268)" d="M0.803426 3.34338L3.57065 3.34338L3.57065 0L4.37158 0L4.37158 7.86885L3.57065 7.86885L3.57065 4.13054L0.803426 4.13054L0.803426 7.86885L0 7.86885L0 0L0.803426 0L0.803426 3.34338L3.57065 3.34338L3.57065 0L4.37158 0L4.37158 7.86885L3.57065 7.86885L3.57065 4.13054L0.803426 4.13054L0.803426 7.86885L0 7.86885L0 0L0.803426 0L0.803426 3.34338Z"/>
	</g>
	<defs>
		<clipPath id="clip_24">
			<rect x="-140" y="-14" width="1440" height="2628" clip-rule="evenodd"/>
		</clipPath>
	</defs>
	<g clip-path="url(#clip_24)">
		<path fill="rgb(88,88,91)" stroke="none" transform="translate(131.148 0.874268)" d="M0.80467 3.34338L3.56816 3.34338L3.56816 0L4.37158 0L4.37158 7.86885L3.56816 7.86885L3.56816 4.13054L0.80467 4.13054L0.80467 7.86885L0 7.86885L0 0L0.80467 0L0.80467 3.34338L3.56816 3.34338L3.56816 0L4.37158 0L4.37158 7.86885L3.56816 7.86885L3.56816 4.13054L0.80467 4.13054L0.80467 7.86885L0 7.86885L0 0L0.80467 0L0.80467 3.34338Z"/>
	</g>
	<defs>
		<clipPath id="clip_25">
			<rect x="-140" y="-14" width="1440" height="2628" clip-rule="evenodd"/>
		</clipPath>
	</defs>
	<g clip-path="url(#clip_25)">
		<path fill="rgb(88,88,91)" stroke="none" transform="translate(141.639 0.874268)" d="M5.2459 7.86885L3.18094 0L2.09532 0L0 7.86885L0.900888 7.86885L1.44243 5.60882L3.76171 5.60882L4.34501 7.86885L5.2459 7.86885ZM1.63728 4.82302L2.60397 0.634323L2.62801 0.634323L3.57951 4.82302L1.63728 4.82302Z" fill-rule="evenodd"/>
	</g>
	<defs>
		<clipPath id="clip_26">
			<rect x="-140" y="-14" width="1440" height="2628" clip-rule="evenodd"/>
		</clipPath>
	</defs>
	<g clip-path="url(#clip_26)">
		<path fill="rgb(88,88,91)" stroke="none" transform="translate(153.005 0.874268)" d="M0.90635 7.86885L2.50053 4.52339L3.55835 4.52339L3.55835 7.86885L4.37158 7.86885L4.37158 0L2.44094 0C1.10997 0 0.24459 0.657073 0.24459 2.21829C0.24459 3.56182 0.814473 4.13075 1.65129 4.41521L0 7.86885L0.90635 7.86885ZM1.0901 2.21829C1.0901 1.10447 1.65874 0.785283 2.63338 0.785283L3.55835 0.785283L3.55835 3.73811L2.86804 3.73811C1.75062 3.73811 1.0901 3.47768 1.0901 2.21829Z" fill-rule="evenodd"/>
	</g>
</svg>
