<?xml version="1.0" encoding="utf-8" ?>
<svg xmlns="http://www.w3.org/2000/svg" xmlns:xlink="http://www.w3.org/1999/xlink" width="17" height="18">
	<defs>
		<clipPath id="clip_0">
			<rect x="-436.80005" y="-135.40002" width="1368" height="380" clip-rule="evenodd"/>
		</clipPath>
	</defs>
	<g clip-path="url(#clip_0)">
		<path fill="rgb(255,255,255)" fill-opacity="0.60000002" stroke="none" transform="matrix(0.95 0 0 0.95 0.199951 0.450073)" d="M8.4375 7.875C8.748 7.875 9 7.62328 9 7.3125L9 0.5625C9 0.251719 8.748 0 8.4375 0C8.127 0 7.875 0.251719 7.875 0.5625L7.875 7.3125C7.875 7.62328 8.127 7.875 8.4375 7.875L8.4375 7.875C8.748 7.875 9 7.62328 9 7.3125L9 0.5625C9 0.251719 8.748 0 8.4375 0C8.127 0 7.875 0.251719 7.875 0.5625L7.875 7.3125C7.875 7.62328 8.127 7.875 8.4375 7.875M11.25 1.60706L11.25 2.81137C13.8926 3.91331 15.75 6.52106 15.75 9.56306C15.75 13.6015 12.476 16.875 8.4375 16.875C4.39903 16.875 1.125 13.6015 1.125 9.56306C1.125 6.52106 2.98237 3.91331 5.625 2.81137L5.625 1.60706C2.34844 2.76581 0 5.88966 0 9.56306C0 14.2228 3.77775 18 8.4375 18C13.0975 18 16.875 14.2228 16.875 9.56306C16.875 5.88966 14.5266 2.76581 11.25 1.60706L11.25 1.60706L11.25 2.81137C13.8926 3.91331 15.75 6.52106 15.75 9.56306C15.75 13.6015 12.476 16.875 8.4375 16.875C4.39903 16.875 1.125 13.6015 1.125 9.56306C1.125 6.52106 2.98237 3.91331 5.625 2.81137L5.625 1.60706C2.34844 2.76581 0 5.88966 0 9.56306C0 14.2228 3.77775 18 8.4375 18C13.0975 18 16.875 14.2228 16.875 9.56306C16.875 5.88966 14.5266 2.76581 11.25 1.60706"/>
	</g>
</svg>
