<?xml version="1.0" encoding="utf-8" ?>
<svg xmlns="http://www.w3.org/2000/svg" xmlns:xlink="http://www.w3.org/1999/xlink" width="18" height="18">
	<defs>
		<clipPath id="clip_0">
			<rect x="-136" y="-84" width="1440" height="2628" clip-rule="evenodd"/>
		</clipPath>
	</defs>
	<g clip-path="url(#clip_0)">
		<path fill="rgb(16,16,16)" stroke="none" d="M7.31407 13.503C3.89615 13.503 1.12524 10.7326 1.12524 7.3141C1.12524 3.89616 3.89615 1.12525 7.31407 1.12525C10.732 1.12525 13.5029 3.89616 13.5029 7.3141C13.5029 10.7326 10.732 13.503 7.31407 13.503L7.31407 13.503C3.89615 13.503 1.12524 10.7326 1.12524 7.3141C1.12524 3.89616 3.89615 1.12525 7.31407 1.12525C10.732 1.12525 13.5029 3.89616 13.5029 7.3141C13.5029 10.7326 10.732 13.503 7.31407 13.503M17.8432 17.0857L12.8494 12.0919C13.9569 10.8102 14.6281 9.14094 14.6281 7.3141C14.6281 3.27475 11.3534 0 7.31407 0C3.27473 0 0 3.27475 0 7.3141C0 11.3535 3.27473 14.6282 7.31407 14.6282C9.1409 14.6282 10.8102 13.9567 12.0918 12.8495L17.0857 17.843C17.2947 18.0523 17.6342 18.0523 17.8432 17.843C18.0523 17.6337 18.0523 17.2948 17.8432 17.0857L17.8432 17.0857L12.8494 12.0919C13.9569 10.8102 14.6281 9.14094 14.6281 7.3141C14.6281 3.27475 11.3534 0 7.31407 0C3.27473 0 0 3.27475 0 7.3141C0 11.3535 3.27473 14.6282 7.31407 14.6282C9.1409 14.6282 10.8102 13.9567 12.0918 12.8495L17.0857 17.843C17.2947 18.0523 17.6342 18.0523 17.8432 17.843C18.0523 17.6337 18.0523 17.2948 17.8432 17.0857"/>
	</g>
</svg>
