<?xml version="1.0" encoding="utf-8" ?>
<svg xmlns="http://www.w3.org/2000/svg" xmlns:xlink="http://www.w3.org/1999/xlink" width="15" height="9">
	<defs>
		<clipPath id="clip_0">
			<rect x="-243.60999" y="-151.90002" width="1339.2" height="1484.28" clip-rule="evenodd"/>
		</clipPath>
		<linearGradient id="gradient_0" gradientUnits="userSpaceOnUse" x1="0" y1="0" x2="14.062645" y2="7.8483009">
			<stop offset="0" stop-color="rgb(255,255,255)"/>
			<stop offset="1" stop-color="rgb(16,16,16)"/>
		</linearGradient>
	</defs>
	<g clip-path="url(#clip_0)">
		<path stroke="none" transform="matrix(0.93 0 0 0.93 0.97998 0.619995)" d="M13.7155 0.0758498L14.0313 0.391662Q13.9505 0.310882 13.8572 0.249996Q13.7963 0.156629 13.7155 0.0758498ZM7.7708 7.43477L13.7155 1.49006Q13.778 1.42757 13.8288 1.35728Q13.8795 1.287 13.9173 1.21063Q13.9551 1.13426 13.9791 1.05364Q14.003 0.97303 14.0125 0.89012Q14.0219 0.80721 14.0167 0.724008Q14.0115 0.640805 13.9917 0.559319Q13.972 0.477833 13.9381 0.400033Q13.9043 0.322232 13.8572 0.249996Q13.6097 0.088616 13.3242 0.0886161Q13.1289 0.0886161 12.9463 0.166906Q12.7636 0.245195 12.6171 0.391662L6.996 6.01277L1.38289 0.399666Q1.32039 0.337169 1.25011 0.286407Q1.17983 0.235646 1.10346 0.197846Q1.02709 0.160046 0.946472 0.136122Q0.865858 0.112197 0.782948 0.102726Q0.700038 0.0932541 0.616835 0.0984643Q0.533633 0.103674 0.452147 0.123441Q0.370661 0.143207 0.29286 0.177051Q0.21506 0.210896 0.142824 0.258001Q0.203709 0.164634 0.284489 0.083854L-0.0313226 0.399666Q0.0494571 0.318886 0.142824 0.258001Q0.0957188 0.330237 0.0618744 0.408037Q0.0280299 0.485837 0.00826384 0.567323Q-0.0115022 0.648809 -0.0167124 0.732012Q-0.0219225 0.815215 -0.0124509 0.898125Q-0.00297932 0.981034 0.0209452 1.06165Q0.0448698 1.14226 0.0826694 1.21863Q0.120469 1.295 0.17123 1.36529Q0.221992 1.43557 0.284489 1.49807L6.23448 7.44806Q6.27494 7.60363 6.36517 7.742Q6.27181 7.68111 6.19103 7.60033L6.50684 7.91615Q6.42606 7.83537 6.36517 7.742Q6.50115 7.83067 6.65386 7.87131Q6.80658 7.91195 6.96315 7.90114Q7.13749 7.92701 7.30995 7.8882Q7.48241 7.8494 7.63483 7.75Q7.57394 7.84337 7.49316 7.92415L7.80897 7.60834Q7.72819 7.68912 7.63483 7.75Q7.73136 7.60197 7.7708 7.43477Z" fill-rule="evenodd"/>
	</g>
</svg>
